<?xml version="1.0" encoding="utf-8"?>
<!-- Generator: Adobe Illustrator 26.0.2, SVG Export Plug-In . SVG Version: 6.00 Build 0)  -->
<svg version="1.1" id="Layer_1" xmlns="http://www.w3.org/2000/svg" xmlns:xlink="http://www.w3.org/1999/xlink" x="0px" y="0px"
	 viewBox="0 0 1844.6 1508" style="enable-background:new 0 0 1844.6 1508;" xml:space="preserve">
<style type="text/css">
	.st0{fill:none;stroke:url(#SVGID_1_);stroke-width:8;stroke-miterlimit:10;}
	.st1{fill:none;stroke:url(#SVGID_00000048487468157678620330000016235646306963223460_);stroke-width:8;stroke-miterlimit:10;}
	.st2{fill:none;stroke:url(#SVGID_00000116201143639107564850000009294704467292402084_);stroke-width:8;stroke-miterlimit:10;}
	.st3{fill:none;stroke:url(#SVGID_00000013186534550443664530000014260364861115502749_);stroke-width:8;stroke-miterlimit:10;}
	.st4{fill:none;stroke:url(#SVGID_00000068641898737685965870000004831101630654017682_);stroke-width:8;stroke-miterlimit:10;}
	.st5{fill:none;stroke:url(#SVGID_00000157270776140939685940000011695478210314077342_);stroke-width:8;stroke-miterlimit:10;}
	.st6{fill:none;stroke:url(#SVGID_00000052079014562838617190000015328310608953936530_);stroke-width:8;stroke-miterlimit:10;}
	.st7{fill:none;stroke:url(#SVGID_00000039825208546559413750000015425153044037417626_);stroke-width:8;stroke-miterlimit:10;}
	.st8{fill:none;stroke:url(#SVGID_00000176724311845513258750000011219355644395730330_);stroke-width:8;stroke-miterlimit:10;}
	.st9{fill:none;stroke:url(#SVGID_00000116943647606349680450000012843380486025292985_);stroke-width:8;stroke-miterlimit:10;}
	.st10{fill:none;stroke:url(#SVGID_00000013181624537830302780000015765594770215164066_);stroke-width:8;stroke-miterlimit:10;}
	.st11{fill:none;stroke:url(#SVGID_00000145030188016520473570000016725494387834914979_);stroke-width:8;stroke-miterlimit:10;}
	.st12{fill:none;stroke:url(#SVGID_00000090985951242707904490000014492153821008204983_);stroke-width:8;stroke-miterlimit:10;}
	.st13{fill:none;stroke:url(#SVGID_00000099633068505692965430000006119002724909958570_);stroke-width:8;stroke-miterlimit:10;}
	.st14{fill:none;stroke:url(#SVGID_00000142153624941562002020000000427581322154395286_);stroke-width:8;stroke-miterlimit:10;}
	.st15{fill:none;stroke:url(#SVGID_00000040538500282786192900000004425827543305607307_);stroke-width:8;stroke-miterlimit:10;}
	.st16{fill:none;stroke:url(#SVGID_00000036226243516700955110000011491028151900249749_);stroke-width:8;stroke-miterlimit:10;}
	.st17{fill:none;stroke:url(#SVGID_00000078730887607993781600000016167578639957101732_);stroke-width:8;stroke-miterlimit:10;}
	.st18{fill:url(#SVGID_00000121259135068588182820000008865944337864283776_);}
	.st19{fill:url(#SVGID_00000011017039980718297430000012902645730045125030_);}
	.st20{fill:url(#SVGID_00000166639443823530333310000005935047607472759195_);}
	.st21{fill:url(#SVGID_00000096769624255349475780000013004774222619302550_);}
	.st22{fill:url(#SVGID_00000143587971646719464110000006262606263394316689_);}
	.st23{fill:url(#SVGID_00000167392028106470170060000016959461413522863246_);}
	.st24{fill:url(#SVGID_00000163753034435769714380000010632816675034989990_);}
	.st25{fill:url(#SVGID_00000063600091119642746330000001883280931596435586_);}
	.st26{fill:#F6F6F6;}
</style>
<g>
	
		<radialGradient id="SVGID_1_" cx="1024.031" cy="484.1468" r="536.3101" gradientTransform="matrix(1 0 0 -1 -112.8435 1238.2753)" gradientUnits="userSpaceOnUse">
		<stop  offset="0.24" style="stop-color:#F9F2BF"/>
		<stop  offset="1" style="stop-color:#67658D"/>
	</radialGradient>
	
		<ellipse transform="matrix(0.1795 -0.9838 0.9838 0.1795 5.758 1515.1604)" class="st0" cx="911.2" cy="754.1" rx="750" ry="74.7"/>
	
		<radialGradient id="SVGID_00000046335610625535199740000009530833227924067261_" cx="911.1874" cy="753.8716" r="536.0556" gradientTransform="matrix(1 0 0 -1 0 1508)" gradientUnits="userSpaceOnUse">
		<stop  offset="0" style="stop-color:#F9F2BF"/>
		<stop  offset="1" style="stop-color:#F1CB5F"/>
	</radialGradient>
	
		<ellipse style="fill:none;stroke:url(#SVGID_00000046335610625535199740000009530833227924067261_);stroke-width:8;stroke-miterlimit:10;" cx="911.2" cy="754.1" rx="74.7" ry="750"/>
	
		<radialGradient id="SVGID_00000008139231678085090140000011910949131457012137_" cx="1734.3129" cy="-127.1424" r="536.31" gradientTransform="matrix(-0.9376 0.3476 0.3476 0.9376 2581.5532 270.5128)" gradientUnits="userSpaceOnUse">
		<stop  offset="0.24" style="stop-color:#F9F2BF"/>
		<stop  offset="1" style="stop-color:#67658D"/>
	</radialGradient>
	
		<ellipse transform="matrix(0.9848 -0.1736 0.1736 0.9848 -117.11 169.683)" style="fill:none;stroke:url(#SVGID_00000008139231678085090140000011910949131457012137_);stroke-width:8;stroke-miterlimit:10;" cx="911.2" cy="754.1" rx="74.7" ry="750"/>
	
		<radialGradient id="SVGID_00000005948959237151577030000004857308735482922889_" cx="1734.1388" cy="-127.3188" r="536.0556" gradientTransform="matrix(-0.9376 0.3476 0.3476 0.9376 2581.4514 270.7386)" gradientUnits="userSpaceOnUse">
		<stop  offset="0" style="stop-color:#F9F2BF"/>
		<stop  offset="1" style="stop-color:#F1CB5F"/>
	</radialGradient>
	
		<ellipse transform="matrix(0.9376 -0.3476 0.3476 0.9376 -205.312 363.7425)" style="fill:none;stroke:url(#SVGID_00000005948959237151577030000004857308735482922889_);stroke-width:8;stroke-miterlimit:10;" cx="911.2" cy="754.1" rx="74.7" ry="750"/>
	
		<radialGradient id="SVGID_00000095313306441735638930000014775391884497169044_" cx="965.8505" cy="155.7702" r="536.3101" gradientTransform="matrix(0.7547 0.6561 0.6561 -0.7547 80.0564 238.0347)" gradientUnits="userSpaceOnUse">
		<stop  offset="0.24" style="stop-color:#F9F2BF"/>
		<stop  offset="1" style="stop-color:#67658D"/>
	</radialGradient>
	
		<ellipse transform="matrix(0.7809 -0.6247 0.6247 0.7809 -271.4308 734.4713)" style="fill:none;stroke:url(#SVGID_00000095313306441735638930000014775391884497169044_);stroke-width:8;stroke-miterlimit:10;" cx="911.2" cy="754.1" rx="750" ry="74.7"/>
	
		<radialGradient id="SVGID_00000055674427422158045610000002363968509723844256_" cx="965.6981" cy="155.7755" r="536.0556" gradientTransform="matrix(0.7547 0.6561 0.6561 -0.7547 80.1678 238.1387)" gradientUnits="userSpaceOnUse">
		<stop  offset="0" style="stop-color:#F9F2BF"/>
		<stop  offset="1" style="stop-color:#F1CB5F"/>
	</radialGradient>
	
		<ellipse transform="matrix(0.6561 -0.7547 0.7547 0.6561 -255.7532 947.0576)" style="fill:none;stroke:url(#SVGID_00000055674427422158045610000002363968509723844256_);stroke-width:8;stroke-miterlimit:10;" cx="911.2" cy="754.1" rx="750" ry="74.7"/>
	
		<radialGradient id="SVGID_00000152240745408968383880000002941099126884695460_" cx="1902.9994" cy="160.5275" r="536.3101" gradientTransform="matrix(-0.9357 -0.3528 -0.3528 0.9357 2748.4436 1275.3439)" gradientUnits="userSpaceOnUse">
		<stop  offset="0.24" style="stop-color:#F9F2BF"/>
		<stop  offset="1" style="stop-color:#67658D"/>
	</radialGradient>
	
		<ellipse transform="matrix(0.515 -0.8572 0.8572 0.515 -204.523 1146.7637)" style="fill:none;stroke:url(#SVGID_00000152240745408968383880000002941099126884695460_);stroke-width:8;stroke-miterlimit:10;" cx="911.2" cy="754.1" rx="750" ry="74.7"/>
	
		<radialGradient id="SVGID_00000097494054146529757660000008531087876503980424_" cx="1902.9958" cy="160.3549" r="536.0556" gradientTransform="matrix(-0.9357 -0.3528 -0.3528 0.9357 2748.3794 1275.5042)" gradientUnits="userSpaceOnUse">
		<stop  offset="0" style="stop-color:#F9F2BF"/>
		<stop  offset="1" style="stop-color:#F1CB5F"/>
	</radialGradient>
	
		<ellipse transform="matrix(0.3528 -0.9357 0.9357 0.3528 -115.9301 1340.645)" style="fill:none;stroke:url(#SVGID_00000097494054146529757660000008531087876503980424_);stroke-width:8;stroke-miterlimit:10;" cx="911.2" cy="754.1" rx="750" ry="74.7"/>
	
		<radialGradient id="SVGID_00000078734193199287110870000005744647502991341457_" cx="1124.5212" cy="-119.4471" r="536.3101" gradientTransform="matrix(0.1736 0.9848 0.9848 -0.1736 833.5488 -374.0507)" gradientUnits="userSpaceOnUse">
		<stop  offset="0.24" style="stop-color:#F9F2BF"/>
		<stop  offset="1" style="stop-color:#67658D"/>
	</radialGradient>
	
		<ellipse transform="matrix(5.934041e-03 -1 1 5.934041e-03 151.6653 1660.8248)" style="fill:none;stroke:url(#SVGID_00000078734193199287110870000005744647502991341457_);stroke-width:8;stroke-miterlimit:10;" cx="911.2" cy="754.1" rx="74.7" ry="750"/>
	
		<radialGradient id="SVGID_00000079448154883277912770000012652857477721187501_" cx="1124.3396" cy="-119.6" r="536.0556" gradientTransform="matrix(0.1736 0.9848 0.9848 -0.1736 833.7309 -373.8983)" gradientUnits="userSpaceOnUse">
		<stop  offset="0" style="stop-color:#F9F2BF"/>
		<stop  offset="1" style="stop-color:#F1CB5F"/>
	</radialGradient>
	
		<ellipse transform="matrix(0.9848 -0.1736 0.1736 0.9848 -117.11 169.683)" style="fill:none;stroke:url(#SVGID_00000079448154883277912770000012652857477721187501_);stroke-width:8;stroke-miterlimit:10;" cx="911.2" cy="754.1" rx="750" ry="74.7"/>
	
		<radialGradient id="SVGID_00000033335182951857588060000013429526820285523092_" cx="1849.9675" cy="473.8872" r="536.3101" gradientTransform="matrix(-0.5051 -0.863 -0.863 0.5051 2254.647 2111.3555)" gradientUnits="userSpaceOnUse">
		<stop  offset="0.24" style="stop-color:#F9F2BF"/>
		<stop  offset="1" style="stop-color:#67658D"/>
	</radialGradient>
	
		<ellipse transform="matrix(0.9397 -0.342 0.342 0.9397 -202.9758 357.124)" style="fill:none;stroke:url(#SVGID_00000033335182951857588060000013429526820285523092_);stroke-width:8;stroke-miterlimit:10;" cx="911.2" cy="754.1" rx="750" ry="74.7"/>
	
		<radialGradient id="SVGID_00000177452546871602640660000008497225952912208310_" cx="1849.969" cy="473.7133" r="536.0556" gradientTransform="matrix(-0.5051 -0.863 -0.863 0.5051 2254.4978 2111.4446)" gradientUnits="userSpaceOnUse">
		<stop  offset="0" style="stop-color:#F9F2BF"/>
		<stop  offset="1" style="stop-color:#F1CB5F"/>
	</radialGradient>
	
		<ellipse transform="matrix(0.863 -0.5051 0.5051 0.863 -256.1397 563.5515)" style="fill:none;stroke:url(#SVGID_00000177452546871602640660000008497225952912208310_);stroke-width:8;stroke-miterlimit:10;" cx="911.2" cy="754.1" rx="750" ry="74.7"/>
	
		<radialGradient id="SVGID_00000029037304558357632870000018328185071453870984_" cx="1429.5038" cy="-233.7751" r="536.3101" gradientTransform="matrix(-0.5 0.866 0.866 0.5 1828.3945 -366.9705)" gradientUnits="userSpaceOnUse">
		<stop  offset="0.24" style="stop-color:#F9F2BF"/>
		<stop  offset="1" style="stop-color:#67658D"/>
	</radialGradient>
	
		<ellipse transform="matrix(0.6473 -0.7622 0.7622 0.6473 -253.4535 960.4866)" style="fill:none;stroke:url(#SVGID_00000029037304558357632870000018328185071453870984_);stroke-width:8;stroke-miterlimit:10;" cx="911.2" cy="754.1" rx="74.7" ry="750"/>
	
		<radialGradient id="SVGID_00000003819523576837661280000016925472283396971688_" cx="1429.3127" cy="-233.9414" r="536.0556" gradientTransform="matrix(-0.5 0.866 0.866 0.5 1828.443 -366.722)" gradientUnits="userSpaceOnUse">
		<stop  offset="0" style="stop-color:#F9F2BF"/>
		<stop  offset="1" style="stop-color:#F1CB5F"/>
	</radialGradient>
	
		<ellipse transform="matrix(0.5 -0.866 0.866 0.5 -197.5006 1166.1757)" style="fill:none;stroke:url(#SVGID_00000003819523576837661280000016925472283396971688_);stroke-width:8;stroke-miterlimit:10;" cx="911.2" cy="754.1" rx="74.7" ry="750"/>
	
		<radialGradient id="SVGID_00000078004727563429788010000001438505261443323321_" cx="1603.7446" cy="687.1047" r="536.3101" gradientTransform="matrix(0.1678 -0.9858 -0.9858 -0.1678 1319.4393 2450.4304)" gradientUnits="userSpaceOnUse">
		<stop  offset="0.24" style="stop-color:#F9F2BF"/>
		<stop  offset="1" style="stop-color:#67658D"/>
	</radialGradient>
	
		<ellipse transform="matrix(0.342 -0.9397 0.9397 0.342 -109.106 1352.4374)" style="fill:none;stroke:url(#SVGID_00000078004727563429788010000001438505261443323321_);stroke-width:8;stroke-miterlimit:10;" cx="911.2" cy="754.1" rx="74.7" ry="750"/>
	
		<radialGradient id="SVGID_00000065756724602782661730000005531269199495637165_" cx="1603.7478" cy="687.0963" r="536.0556" gradientTransform="matrix(0.1678 -0.9858 -0.9858 -0.1678 1319.4303 2450.4321)" gradientUnits="userSpaceOnUse">
		<stop  offset="0" style="stop-color:#F9F2BF"/>
		<stop  offset="1" style="stop-color:#F1CB5F"/>
	</radialGradient>
	
		<ellipse transform="matrix(0.1678 -0.9858 0.9858 0.1678 14.8535 1525.8523)" style="fill:none;stroke:url(#SVGID_00000065756724602782661730000005531269199495637165_);stroke-width:8;stroke-miterlimit:10;" cx="911.2" cy="754.1" rx="74.7" ry="750"/>
	
		<radialGradient id="SVGID_00000097478008916307293540000010233415092969082550_" cx="1592.5654" cy="-208.518" r="536.31" gradientTransform="matrix(-0.7625 0.6414 0.6414 0.7625 2264.3669 -106.2601)" gradientUnits="userSpaceOnUse">
		<stop  offset="0.24" style="stop-color:#F9F2BF"/>
		<stop  offset="1" style="stop-color:#67658D"/>
	</radialGradient>
	
		<ellipse transform="matrix(0.869 -0.4949 0.4949 0.869 -253.7957 549.7111)" style="fill:none;stroke:url(#SVGID_00000097478008916307293540000010233415092969082550_);stroke-width:8;stroke-miterlimit:10;" cx="911.2" cy="754.1" rx="74.7" ry="750"/>
	
		<radialGradient id="SVGID_00000041979861622620933110000004266557981083224490_" cx="1592.422" cy="-206.7841" r="536.0556" gradientTransform="matrix(-0.766 0.6428 0.6428 0.766 2263.9717 -111.055)" gradientUnits="userSpaceOnUse">
		<stop  offset="0" style="stop-color:#F9F2BF"/>
		<stop  offset="1" style="stop-color:#F1CB5F"/>
	</radialGradient>
	
		<ellipse transform="matrix(0.766 -0.6428 0.6428 0.766 -271.567 762.1325)" style="fill:none;stroke:url(#SVGID_00000041979861622620933110000004266557981083224490_);stroke-width:8;stroke-miterlimit:10;" cx="911.2" cy="754.1" rx="74.7" ry="750"/>
	
		<image style="overflow:visible;opacity:0.75;enable-background:new    ;" width="1553" height="2576" xlink:href="C958D0DB8AA40CCF.png"  transform="matrix(0.24 0 0 0.24 486.72 83.21)">
	</image>
	
		<linearGradient id="SVGID_00000063619925525116979340000018407072572541127042_" gradientUnits="userSpaceOnUse" x1="778.7791" y1="558.9" x2="778.7791" y2="1146.8762" gradientTransform="matrix(1 0 0 -1 -112.68 1238.29)">
		<stop  offset="0" style="stop-color:#F9F2E9"/>
		<stop  offset="0.16" style="stop-color:#F9F1E5"/>
		<stop  offset="0.32" style="stop-color:#F8EFDA"/>
		<stop  offset="0.46" style="stop-color:#F7EBC8"/>
		<stop  offset="0.6" style="stop-color:#F6E5AD"/>
		<stop  offset="0.74" style="stop-color:#F5DD8C"/>
		<stop  offset="0.88" style="stop-color:#F3D463"/>
		<stop  offset="1" style="stop-color:#F1CB38"/>
	</linearGradient>
	<path style="fill:url(#SVGID_00000063619925525116979340000018407072572541127042_);" d="M567,391.7
		c-17.9-62.8-21.3-115-21.2-150.1c0.2-64.2,12.3-86.6,25.2-100.6c4.1-4.5,23.7-25.8,52.7-26.7c34.8-1.1,59.2,27.9,70.7,41.6
		c28.8,34.3,34,72.8,36.9,97.4c5.6,46.5-2.5,85-13.4,136c-11.8,55.5-20.3,65.5-16.5,95.1c1.7,13,6.4,34.9,36.9,81.7
		c27.2,41.5,59.4,79.5,95.9,113.1c1-29.6,2.1-59.2,3.1-88.8c-15.1-12-29-25.5-41.7-40.1c-18.4-21.3-29.6-34.3-36.2-53.4
		c-7.8-22.6-3.7-46.3,4.7-92.7c7.5-41.5,11.8-47.3,15.7-69.2s17.3-96.2-22-163.5c-10.2-17.4-34-58.1-83.3-73.9
		c-11.4-3.6-52.2-14.9-94.4,5.5c-36.6,17.8-52.5,48.9-62.9,69.2c-18.3,35.8-20.1,67.6-22,102.2c-2,37.5,1.2,75.1,9.5,111.7
		L567,391.7z"/>
	
		<image style="overflow:visible;opacity:0.75;enable-background:new    ;" width="2597" height="1535" xlink:href="C958D0DB8AA40CCD.png"  transform="matrix(0.24 0 0 0.24 202.8 434.81)">
	</image>
	
		<linearGradient id="SVGID_00000060006815062580395420000012194307968022944907_" gradientUnits="userSpaceOnUse" x1="1069.946" y1="777.9548" x2="1069.946" y2="1365.8796" gradientTransform="matrix(0.7071 -0.7071 -0.7071 -0.7071 478.6934 2181.1709)">
		<stop  offset="0" style="stop-color:#F9F2E9"/>
		<stop  offset="0.16" style="stop-color:#F9F1E5"/>
		<stop  offset="0.32" style="stop-color:#F8EFDA"/>
		<stop  offset="0.46" style="stop-color:#F7EBC8"/>
		<stop  offset="0.6" style="stop-color:#F6E5AD"/>
		<stop  offset="0.74" style="stop-color:#F5DD8C"/>
		<stop  offset="0.88" style="stop-color:#F3D463"/>
		<stop  offset="1" style="stop-color:#F1CB38"/>
	</linearGradient>
	<path style="fill:url(#SVGID_00000060006815062580395420000012194307968022944907_);" d="M411.7,741.2
		c-57.1-31.8-96.4-66.2-121.1-91.1c-45.2-45.5-52.5-69.9-53.4-88.9c-0.3-6.1-1.5-35,18.3-56.1c23.8-25.5,61.5-22.1,79.5-20.6
		c44.6,3.9,75.5,27.5,95,42.8c36.9,28.9,58.3,61.9,86.7,105.6c30.9,47.6,32,60.7,55.6,78.9c10.4,8,29.2,20.2,83.9,31.7
		c48.6,10.1,98.2,14.2,147.8,12.2l-60.6-65c-19.2,2.2-38.5,2.5-57.8,1.1c-28-2.1-45.1-3.3-63.3-12.2c-21.5-10.5-35.4-30.1-62.2-68.9
		c-24-34.6-25.1-41.8-37.8-60c-12.7-18.2-55.8-80.3-131.1-100c-19.5-5.1-65.1-17.1-111.1,6.7c-10.6,5.5-47.5,26.3-62.8,70.6
		c-13.3,38.4-2.5,71.8,4.4,93.4c12.4,38.3,33.6,62,56.7,87.8c25,27.9,53.9,52.2,85.6,72.2L411.7,741.2z"/>
	
		<image style="overflow:visible;opacity:0.75;enable-background:new    ;" width="2576" height="1553" xlink:href="C958D0DB8AA40CD3.png"  transform="matrix(0.24 0 0 0.24 240.48 819.53)">
	</image>
	
		<linearGradient id="SVGID_00000137810379455505048840000007035000090315231164_" gradientUnits="userSpaceOnUse" x1="1430.8018" y1="726.86" x2="1430.8018" y2="1314.8302" gradientTransform="matrix(6.123234e-17 -1 -1 -6.123234e-17 1563.5699 2429.73)">
		<stop  offset="0" style="stop-color:#F9F2E9"/>
		<stop  offset="0.16" style="stop-color:#F9F1E5"/>
		<stop  offset="0.32" style="stop-color:#F8EFDA"/>
		<stop  offset="0.46" style="stop-color:#F7EBC8"/>
		<stop  offset="0.6" style="stop-color:#F6E5AD"/>
		<stop  offset="0.74" style="stop-color:#F5DD8C"/>
		<stop  offset="0.88" style="stop-color:#F3D463"/>
		<stop  offset="1" style="stop-color:#F1CB38"/>
	</linearGradient>
	<path style="fill:url(#SVGID_00000137810379455505048840000007035000090315231164_);" d="M549,1098.1
		c-62.8,17.9-115,21.3-150.1,21.2c-64.2-0.2-86.6-12.3-100.6-25.2c-4.5-4.1-25.8-23.7-26.7-52.7c-1.1-34.8,27.9-59.2,41.6-70.7
		c34.4-28.8,72.9-34,97.5-36.9c46.5-5.6,85,2.5,136,13.4c55.5,11.8,65.5,20.3,95.1,16.5c13-1.7,34.9-6.4,81.7-36.9
		c41.5-27.2,79.5-59.4,113.2-95.9l-88.8-3.1c-12,15.1-25.5,29-40.1,41.7c-21.3,18.4-34.3,29.6-53.4,36.2
		c-22.6,7.8-46.3,3.7-92.7-4.7c-41.5-7.5-47.3-11.8-69.2-15.7s-96.2-17.3-163.5,22c-17.4,10.2-58.1,34-73.9,83.3
		c-3.6,11.3-14.9,52.2,5.5,94.3c17.7,36.6,48.9,52.5,69.2,62.9c35.8,18.3,67.5,20.1,102.2,22c37.5,2,75-1.1,111.6-9.4
		C545.4,1139.5,547.2,1118.8,549,1098.1z"/>
	
		<image style="overflow:visible;opacity:0.75;enable-background:new    ;" width="1535" height="2597" xlink:href="C958D0DB8AA40CD5.png"  transform="matrix(0.24 0 0 0.24 592.08 852.89)">
	</image>
	
		<linearGradient id="SVGID_00000039814302243570512080000002000360310041189809_" gradientUnits="userSpaceOnUse" x1="1649.8011" y1="435.701" x2="1649.8011" y2="1023.6223" gradientTransform="matrix(-0.7071 -0.7071 -0.7071 0.7071 2506.4609 1838.3567)">
		<stop  offset="0" style="stop-color:#F9F2E9"/>
		<stop  offset="0.16" style="stop-color:#F9F1E5"/>
		<stop  offset="0.32" style="stop-color:#F8EFDA"/>
		<stop  offset="0.46" style="stop-color:#F7EBC8"/>
		<stop  offset="0.6" style="stop-color:#F6E5AD"/>
		<stop  offset="0.74" style="stop-color:#F5DD8C"/>
		<stop  offset="0.88" style="stop-color:#F3D463"/>
		<stop  offset="1" style="stop-color:#F1CB38"/>
	</linearGradient>
	<path style="fill:url(#SVGID_00000039814302243570512080000002000360310041189809_);" d="M898.5,1253.3
		c-31.8,57.1-66.2,96.4-91.1,121.2c-45.5,45.2-69.9,52.5-88.9,53.3c-6.1,0.3-35,1.5-56.1-18.3c-25.5-23.8-22.1-61.5-20.6-79.5
		c3.9-44.6,27.5-75.5,42.8-95c28.9-36.9,61.9-58.3,105.6-86.7c47.6-30.9,60.7-32,78.9-55.6c8-10.4,20.2-29.2,31.7-83.9
		c10.1-48.6,14.2-98.2,12.2-147.8l-65,60.6c2.2,19.2,2.5,38.5,1.1,57.8c-2.1,28-3.3,45.1-12.2,63.3c-10.5,21.5-30.1,35.4-68.9,62.2
		c-34.6,24-41.8,25.1-60,37.8s-80.3,55.8-100,131.2c-5.1,19.5-17.1,65.1,6.7,111.2c5.5,10.6,26.3,47.4,70.6,62.8
		c38.4,13.3,71.8,2.6,93.4-4.4c38.3-12.4,62-33.6,87.8-56.7c27.9-25,52.2-53.8,72.2-85.6L898.5,1253.3z"/>
	
		<image style="overflow:visible;opacity:0.75;enable-background:new    ;" width="1553" height="2576" xlink:href="C958D0DB8AA40CD7.png"  transform="matrix(0.24 0 0 0.24 976.8 820.25)">
	</image>
	
		<linearGradient id="SVGID_00000070814497982200302990000005938685820302970030_" gradientUnits="userSpaceOnUse" x1="1598.8179" y1="74.86" x2="1598.8179" y2="662.83" gradientTransform="matrix(-1 0 0 1 2755.01 753.48)">
		<stop  offset="0" style="stop-color:#F9F2E9"/>
		<stop  offset="0.16" style="stop-color:#F9F1E5"/>
		<stop  offset="0.32" style="stop-color:#F8EFDA"/>
		<stop  offset="0.46" style="stop-color:#F7EBC8"/>
		<stop  offset="0.6" style="stop-color:#F6E5AD"/>
		<stop  offset="0.74" style="stop-color:#F5DD8C"/>
		<stop  offset="0.88" style="stop-color:#F3D463"/>
		<stop  offset="1" style="stop-color:#F1CB38"/>
	</linearGradient>
	<path style="fill:url(#SVGID_00000070814497982200302990000005938685820302970030_);" d="M1255.3,1116
		c17.9,62.8,21.3,115,21.2,150.1c-0.2,64.2-12.3,86.6-25.2,100.6c-4.1,4.5-23.7,25.8-52.7,26.7c-34.8,1.2-59.2-27.9-70.7-41.7
		c-28.8-34.3-34-72.8-36.9-97.5c-5.6-46.5,2.5-85,13.4-136c11.8-55.5,20.3-65.5,16.5-95.1c-1.7-13-6.4-34.9-36.9-81.7
		c-27.2-41.5-59.4-79.5-95.9-113.2l-3.2,88.8c15.1,12,29,25.5,41.7,40.1c18.4,21.3,29.6,34.3,36.2,53.4c7.8,22.6,3.7,46.3-4.7,92.7
		c-7.5,41.4-11.8,47.3-15.7,69.2s-17.3,96.2,22,163.5c10.2,17.4,34,58.1,83.3,73.9c11.3,3.6,52.2,14.9,94.3-5.5
		c36.6-17.7,52.5-48.9,62.9-69.2c18.3-35.8,20.1-67.6,22-102.2c2-37.5-1.1-75-9.4-111.6L1255.3,1116z"/>
	
		<image style="overflow:visible;opacity:0.75;enable-background:new    ;" width="2597" height="1535" xlink:href="C958D0DB8AA40CD4.png"  transform="matrix(0.24 0 0 0.24 1010.16 718.49)">
	</image>
	
		<linearGradient id="SVGID_00000015331168637539482210000008463740214445454210_" gradientUnits="userSpaceOnUse" x1="1307.541" y1="-144.1123" x2="1307.541" y2="443.8102" gradientTransform="matrix(-0.7071 0.7071 0.7071 0.7071 2163.6467 -189.411)">
		<stop  offset="0" style="stop-color:#F9F2E9"/>
		<stop  offset="0.16" style="stop-color:#F9F1E5"/>
		<stop  offset="0.32" style="stop-color:#F8EFDA"/>
		<stop  offset="0.46" style="stop-color:#F7EBC8"/>
		<stop  offset="0.6" style="stop-color:#F6E5AD"/>
		<stop  offset="0.74" style="stop-color:#F5DD8C"/>
		<stop  offset="0.88" style="stop-color:#F3D463"/>
		<stop  offset="1" style="stop-color:#F1CB38"/>
	</linearGradient>
	<path style="fill:url(#SVGID_00000015331168637539482210000008463740214445454210_);" d="M1410.6,766.6
		c57.1,31.8,96.4,66.2,121.2,91.1c45.2,45.5,52.6,69.9,53.3,88.9c0.3,6.1,1.5,35-18.3,56.1c-23.8,25.4-61.5,22.1-79.5,20.6
		c-44.6-3.9-75.5-27.5-95-42.8c-36.9-28.9-58.3-61.9-86.7-105.6c-30.9-47.6-32-60.7-55.6-78.9c-10.4-8-29.2-20.2-83.9-31.7
		c-48.6-10.1-98.2-14.2-147.8-12.2l60.6,65c19.2-2.2,38.5-2.5,57.8-1.1c28,2.1,45.2,3.3,63.3,12.2c21.5,10.5,35.4,30.1,62.2,68.9
		c24,34.6,25.1,41.8,37.8,60s55.8,80.3,131.2,100c19.5,5.1,65.1,17.1,111.1-6.7c10.6-5.4,47.4-26.3,62.8-70.6
		c13.3-38.4,2.5-71.8-4.4-93.4c-12.4-38.3-33.6-62-56.7-87.8c-25-27.9-53.9-52.2-85.6-72.2L1410.6,766.6z"/>
	
		<image style="overflow:visible;opacity:0.75;enable-background:new    ;" width="2576" height="1553" xlink:href="C958D0DB8AA40CDC.png"  transform="matrix(0.24 0 0 0.24 977.52 329.45)">
	</image>
	
		<linearGradient id="SVGID_00000031892799278478212620000014359589050277658039_" gradientUnits="userSpaceOnUse" x1="946.798" y1="-93.12" x2="946.798" y2="494.8526" gradientTransform="matrix(6.123234e-17 1 1 -6.123234e-17 1078.7599 -437.96)">
		<stop  offset="0" style="stop-color:#F9F2E9"/>
		<stop  offset="0.16" style="stop-color:#F9F1E5"/>
		<stop  offset="0.32" style="stop-color:#F8EFDA"/>
		<stop  offset="0.46" style="stop-color:#F7EBC8"/>
		<stop  offset="0.6" style="stop-color:#F6E5AD"/>
		<stop  offset="0.74" style="stop-color:#F5DD8C"/>
		<stop  offset="0.88" style="stop-color:#F3D463"/>
		<stop  offset="1" style="stop-color:#F1CB38"/>
	</linearGradient>
	<path style="fill:url(#SVGID_00000031892799278478212620000014359589050277658039_);" d="M1273.3,409.7
		c62.8-17.9,115-21.3,150.1-21.2c64.2,0.2,86.6,12.3,100.6,25.2c4.5,4.1,25.8,23.7,26.7,52.7c1.2,34.8-27.9,59.2-41.7,70.7
		c-34.3,28.8-72.8,34-97.4,36.9c-46.5,5.6-85-2.5-136-13.4c-55.5-11.8-65.5-20.3-95.1-16.5c-13,1.7-34.9,6.4-81.7,36.9
		c-41.5,27.2-79.5,59.4-113.2,95.9l88.8,3.2c12-15.1,25.5-29,40.1-41.7c21.3-18.4,34.3-29.6,53.4-36.2c22.6-7.8,46.3-3.7,92.7,4.7
		c41.4,7.5,47.3,11.8,69.2,15.7c21.8,3.9,96.2,17.3,163.5-22c17.4-10.2,58.1-34,73.9-83.3c3.6-11.3,14.9-52.2-5.5-94.3
		c-17.8-36.6-48.9-52.5-69.2-62.9c-35.8-18.3-67.6-20.1-102.2-22c-37.5-2-75,1.1-111.6,9.4C1277,368.3,1275.1,389,1273.3,409.7z"/>
	
		<image style="overflow:visible;opacity:0.75;enable-background:new    ;" width="1535" height="2597" xlink:href="C958D0DB8AA40CDD.png"  transform="matrix(0.24 0 0 0.24 875.76 45.53)">
	</image>
	
		<linearGradient id="SVGID_00000020379482303745023980000007242089043993438636_" gradientUnits="userSpaceOnUse" x1="727.7285" y1="198.099" x2="727.7285" y2="786.025" gradientTransform="matrix(0.7071 0.7071 0.7071 -0.7071 135.879 153.4034)">
		<stop  offset="0" style="stop-color:#F9F2E9"/>
		<stop  offset="0.16" style="stop-color:#F9F1E5"/>
		<stop  offset="0.32" style="stop-color:#F8EFDA"/>
		<stop  offset="0.46" style="stop-color:#F7EBC8"/>
		<stop  offset="0.6" style="stop-color:#F6E5AD"/>
		<stop  offset="0.74" style="stop-color:#F5DD8C"/>
		<stop  offset="0.88" style="stop-color:#F3D463"/>
		<stop  offset="1" style="stop-color:#F1CB38"/>
	</linearGradient>
	<path style="fill:url(#SVGID_00000020379482303745023980000007242089043993438636_);" d="M923.9,254.4
		c31.8-57.1,66.2-96.4,91.1-121.1c45.5-45.2,69.9-52.5,88.9-53.4c6.1-0.3,35-1.5,56.1,18.3c25.5,23.8,22.1,61.5,20.6,79.5
		c-3.9,44.6-27.5,75.5-42.8,95c-28.9,36.9-61.9,58.3-105.6,86.7c-47.6,30.9-60.7,32-78.9,55.6c-8,10.4-20.2,29.2-31.7,83.9
		c-10.1,48.6-14.2,98.3-12.2,147.9l65-60.6c-2.2-19.2-2.5-38.5-1.1-57.8c2.1-28,3.3-45.2,12.2-63.4c10.5-21.5,30.1-35.4,68.9-62.2
		c34.6-24,41.8-25.1,60-37.8s80.3-55.8,100-131.2c5.1-19.5,17.1-65.1-6.7-111.1c-5.5-10.6-26.3-47.5-70.6-62.8
		c-38.4-13.3-71.8-2.5-93.4,4.5c-38.3,12.4-62,33.6-87.8,56.7c-27.9,25.1-52.2,53.9-72.2,85.6L923.9,254.4z"/>
	
		<image style="overflow:visible;opacity:0.75;enable-background:new    ;" width="7686" height="929" xlink:href="C958D0DB8AA40CDF.png"  transform="matrix(0.24 0 0 0.24 0 649.85)">
	</image>
	<path class="st26" d="M8,848V660.6h45.3l19,56.7c0.7,1.9,1.2,4,1.6,6c0.4,2.1,0.7,4,1.1,5.7c0.2,1.9,0.3,3.8,0.5,5.7h2.1
		c0.2-1.9,0.4-3.8,0.8-5.7c0.3-1.7,0.7-3.7,1-5.7s0.8-4.1,1.3-6l16.9-56.8h45.8V848h-34V733.5c0-4.8,0.2-9.7,0.6-14.6
		c0.4-4.9,0.9-9.3,1.4-13.3c0.5-4.9,1.1-9.5,1.8-13.8H110c-0.9,4.2-1.6,8.3-2.3,12.2c-0.9,3.5-1.7,7.1-2.4,10.8
		c-0.6,3.2-1.3,6.4-2.3,9.5L91.3,766H60.6l-13-41.7c-1-3.1-1.8-6.2-2.3-9.4c-0.7-3.6-1.3-7.2-1.8-10.7c-0.7-4-1.4-8.2-2.1-12.5H38
		c0.7,4.3,1.4,8.9,2.1,13.8c0.5,4,1,8.4,1.4,13.3c0.4,4.9,0.7,9.7,0.7,14.6V848H8z"/>
	<path class="st26" d="M203,848v-33.8h39V694.4h-39v-33.8h117.1v33.8h-39v119.7h39V848H203z"/>
	<path class="st26" d="M433.1,660.6v151h76.8V848H394.1V660.6H433.1z"/>
	<path class="st26" d="M574.7,848v-33.8h39V694.4h-39v-33.8h117.1v33.8h-39v119.7h39V848H574.7z"/>
	<path class="st26" d="M753.5,716.3c-0.1-8.2,1.5-16.4,4.7-24c3-7,7.6-13.3,13.3-18.3c6-5.3,13.1-9.3,20.7-11.8
		c17.5-5.6,36.4-5.6,53.9,0c7.6,2.5,14.7,6.5,20.7,11.8c5.7,5.1,10.2,11.3,13.3,18.3c3.2,7.6,4.8,15.8,4.7,24v75.8
		c0.1,8.2-1.5,16.3-4.8,23.8c-3.1,7-7.7,13.4-13.4,18.5c-6,5.3-13.1,9.4-20.7,12c-8.6,2.9-17.6,4.4-26.7,4.3
		c-9.1,0.1-18.3-1.3-26.9-4.2c-7.6-2.5-14.7-6.5-20.7-11.8c-5.7-5.1-10.3-11.4-13.3-18.5c-3.2-7.6-4.8-15.8-4.7-24.1V716.3z
		 M792.5,792.1c0,7.5,2.4,13.4,7.2,17.8c4.8,4.4,11.2,6.6,19.4,6.6c8.2,0,14.6-2.2,19.4-6.6c4.8-4.4,7.2-10.4,7.2-17.8v-75.8
		c0-7.5-2.4-13.4-7.2-17.8c-4.8-4.4-11.2-6.6-19.4-6.6c-8.1,0-14.6,2.2-19.4,6.6c-4.8,4.4-7.2,10.4-7.1,17.8L792.5,792.1z"/>
	<path class="st26" d="M942,660.6h47.4l41.6,124.2c1,2.8,1.7,5.8,2.1,8.7c0.5,3.4,1,6.5,1.3,9.5c0.3,3.6,0.7,7.4,1,11.2h3.7
		c-0.9-6.2-1.6-11.7-2.1-16.4c-0.5-4.7-1-9.8-1.6-15.2c-0.5-5.5-0.8-10.5-0.8-15v-107h33.3v187.4h-47.3l-40.9-124.2
		c-0.9-2.9-1.7-6.1-2.3-9.5s-1.2-6.5-1.6-9.5c-0.3-3.5-0.6-6.9-0.8-10.4h-3.6c0.7,5.2,1.4,10.5,2.1,15.9c0.3,4.5,0.7,9.4,1.2,14.8
		c0.4,5.4,0.7,10.6,0.7,15.6v107.2H942V660.6z"/>
	<path class="st26" d="M1133.6,848V660.6H1252v33.8h-79.4V735h70.3v33.8h-70.3v45.3h79.4V848H1133.6z"/>
	<path class="st26" d="M1315.5,660.6h62.5c9.4-0.1,18.7,1.2,27.6,4c7.6,2.4,14.7,6.3,20.8,11.5c5.7,4.9,10.3,11.1,13.3,18
		c3.2,7.5,4.8,15.6,4.7,23.8c0,12.2-3,22.6-8.8,31.2c-6.1,8.8-14.6,15.7-24.5,19.8L1447,848h-41.7l-31.8-72.9h-19.2V848h-38.8
		L1315.5,660.6z M1354.3,745.2h23.7c8.5,0,15.2-2.3,20-6.9c4.8-4.6,7.3-10.8,7.3-18.6c0-8.2-2.5-14.6-7.4-19.4
		c-4.9-4.8-11.6-7.2-19.9-7.2h-23.6L1354.3,745.2z"/>
	<path class="st26" d="M1618.3,660.6v36.7L1547,812.6v0.5l18.5-1.3h55.7V848H1504v-36.4l71.1-115.3v-0.5l-19,1h-50v-36.2H1618.3z"/>
	<path class="st26" d="M1674.3,660.6h40.9L1743,727c1.3,2.7,2.3,5.6,3,8.6c0.6,2.8,1.1,5.3,1.4,7.5c0.4,2.6,0.6,5,0.8,7.3h1.8
		c0.2-2.2,0.4-4.7,0.8-7.3c0.3-2.3,0.9-4.8,1.6-7.5c0.7-2.9,1.7-5.8,2.9-8.6l26.8-66.4h40.6L1768,782.9V848h-39.1v-65.1
		L1674.3,660.6z"/>
</g>
</svg>
